<svg width="16" height="20" viewBox="0 0 16 20" fill="none" xmlns="http://www.w3.org/2000/svg">
<path d="M2.8 16.0278C2.57143 16.0278 2.37143 15.9444 2.2 15.7778C2.02857 15.6111 1.94286 15.4167 1.94286 15.1944C1.94286 14.9722 2.02857 14.7778 2.2 14.6111C2.37143 14.4444 2.57143 14.3611 2.8 14.3611C3.02857 14.3611 3.22857 14.4444 3.4 14.6111C3.57143 14.7778 3.65714 14.9722 3.65714 15.1944C3.65714 15.4167 3.57143 15.6111 3.4 15.7778C3.22857 15.9444 3.02857 16.0278 2.8 16.0278ZM8 16.0278C7.77143 16.0278 7.57143 15.9444 7.4 15.7778C7.22857 15.6111 7.14286 15.4167 7.14286 15.1944C7.14286 14.9722 7.22857 14.7778 7.4 14.6111C7.57143 14.4444 7.77143 14.3611 8 14.3611C8.22857 14.3611 8.42857 14.4444 8.6 14.6111C8.77143 14.7778 8.85714 14.9722 8.85714 15.1944C8.85714 15.4167 8.77143 15.6111 8.6 15.7778C8.42857 15.9444 8.22857 16.0278 8 16.0278ZM13.2 16.0278C12.9714 16.0278 12.7714 15.9444 12.6 15.7778C12.4286 15.6111 12.3429 15.4167 12.3429 15.1944C12.3429 14.9722 12.4286 14.7778 12.6 14.6111C12.7714 14.4444 12.9714 14.3611 13.2 14.3611C13.4286 14.3611 13.6286 14.4444 13.8 14.6111C13.9714 14.7778 14.0571 14.9722 14.0571 15.1944C14.0571 15.4167 13.9714 15.6111 13.8 15.7778C13.6286 15.9444 13.4286 16.0278 13.2 16.0278ZM1.66667 11.8611C0.746192 11.8611 0 11.1149 0 10.1944C0 8.21296 0.690476 6.48148 2.07143 5C3.45238 3.51852 5.14286 2.67593 7.14286 2.47222V0.857143C7.14286 0.383756 7.52661 0 8 0C8.47339 0 8.85714 0.383756 8.85714 0.857143V2.47222C10.8571 2.67593 12.5476 3.51852 13.9286 5C15.3095 6.48148 16 8.21296 16 10.1944C16 11.1149 15.2538 11.8611 14.3333 11.8611H1.66667ZM1.71429 10.1944H14.2857C14.2857 8.50926 13.6714 7.06945 12.4429 5.875C11.2143 4.68056 9.73333 4.08333 8 4.08333C6.26667 4.08333 4.78571 4.68056 3.55714 5.875C2.32857 7.06945 1.71429 8.50926 1.71429 10.1944ZM2.8 20C2.57143 20 2.37143 19.9167 2.2 19.75C2.02857 19.5833 1.94286 19.3889 1.94286 19.1667C1.94286 18.9444 2.02857 18.75 2.2 18.5833C2.37143 18.4167 2.57143 18.3333 2.8 18.3333C3.02857 18.3333 3.22857 18.4167 3.4 18.5833C3.57143 18.75 3.65714 18.9444 3.65714 19.1667C3.65714 19.3889 3.57143 19.5833 3.4 19.75C3.22857 19.9167 3.02857 20 2.8 20ZM8 20C7.77143 20 7.57143 19.9167 7.4 19.75C7.22857 19.5833 7.14286 19.3889 7.14286 19.1667C7.14286 18.9444 7.22857 18.75 7.4 18.5833C7.57143 18.4167 7.77143 18.3333 8 18.3333C8.22857 18.3333 8.42857 18.4167 8.6 18.5833C8.77143 18.75 8.85714 18.9444 8.85714 19.1667C8.85714 19.3889 8.77143 19.5833 8.6 19.75C8.42857 19.9167 8.22857 20 8 20ZM13.2 20C12.9714 20 12.7714 19.9167 12.6 19.75C12.4286 19.5833 12.3429 19.3889 12.3429 19.1667C12.3429 18.9444 12.4286 18.75 12.6 18.5833C12.7714 18.4167 12.9714 18.3333 13.2 18.3333C13.4286 18.3333 13.6286 18.4167 13.8 18.5833C13.9714 18.75 14.0571 18.9444 14.0571 19.1667C14.0571 19.3889 13.9714 19.5833 13.8 19.75C13.6286 19.9167 13.4286 20 13.2 20Z" fill="white"/>
</svg>
