<svg width="57" height="56" viewBox="0 0 57 56" fill="none" xmlns="http://www.w3.org/2000/svg">
<g clip-path="url(#clip0_64_1713)">
<path d="M56.8319 35.5821C56.8319 34.7502 56.1612 31.2613 54.2232 27.4536C54.7385 20.9467 55.4037 4.99128 50.6027 0.498229C50.1646 0.0879718 49.5441 -0.0750163 48.9559 0.0646878C42.516 1.59619 37.2274 6.07655 34.7334 12.1225C30.5268 11.1501 26.4383 11.1303 22.3181 12.1102C22.2522 12.1258 19.1075 2.68288 8.09876 0.0646878C7.51039 -0.0750163 6.89018 0.0881904 6.45191 0.498229C0.736473 5.84754 2.85577 27.3062 2.81304 27.3835C2.81304 27.5294 0.779533 30.733 0.162226 35.6319C-0.456305 40.075 0.89258 43.1932 0.89258 43.3041C4.59398 53.4285 17.5205 55.9846 28.5001 55.9846C39.4727 55.9846 52.4239 53.4243 56.1075 43.3041C56.1075 43.2931 57.4646 39.8505 56.8319 35.5821ZM48.719 3.75712C51.6349 8.45743 50.9412 22.4885 50.9314 22.4775C47.385 18.1182 42.8532 14.9622 38.143 13.175C40.1507 8.53416 44.0874 5.18072 48.719 3.75712ZM8.3352 3.75701C12.9716 5.18159 16.9005 8.53821 18.9048 13.1576C14.1679 14.9411 9.63869 18.1086 6.10898 22.4282C5.95109 17.8192 5.89824 7.67889 8.3352 3.75701ZM46.5241 48.9317C37.7037 53.6981 19.3031 53.7018 10.476 48.9317C8.30961 47.7609 6.6484 46.318 5.49902 44.616H10.6974C11.6805 44.616 12.4777 43.8329 12.4777 42.8669C12.4777 41.9009 11.6805 41.1179 10.6974 41.1179H3.94685C3.66279 39.9827 3.54851 38.7708 3.58078 37.6198H10.6974C11.6805 37.6198 12.4777 36.8368 12.4777 35.8708C12.4777 34.9048 11.6805 34.1218 10.6974 34.1218H4.0392C5.85285 26.3682 12.734 18.6439 21.7271 15.897C36.1394 11.5017 50.1754 22.2127 52.961 34.1218H46.3028C45.3196 34.1218 44.5226 34.9048 44.5226 35.8708C44.5226 36.8368 45.3196 37.6198 46.3028 37.6198H53.4194C53.4517 38.7698 53.3377 39.9818 53.0534 41.1179H46.3028C45.3196 41.1179 44.5226 41.9009 44.5226 42.8669C44.5226 43.8329 45.3196 44.616 46.3028 44.616H51.5012C50.3517 46.3179 48.6905 47.7609 46.5241 48.9317Z" fill="#5F5F5F"/>
<path d="M38.2915 42.4299C37.3082 42.4299 36.5112 43.2129 36.5112 44.1789C36.5112 45.8666 35.1136 47.2397 33.3958 47.2397C31.9819 47.2397 30.7858 46.3093 30.4065 45.0391C33.3923 43.594 34.9798 38.9076 32.8951 36.8757C31.6626 35.6743 29.8799 35.8837 28.0432 35.8686C26.6266 35.8588 25.1608 35.8465 24.105 36.8757C21.9971 38.9304 23.638 43.6086 26.5936 45.0391C26.2143 46.3093 25.0182 47.2397 23.6043 47.2397C21.8865 47.2397 20.4888 45.8666 20.4888 44.1789C20.4888 43.2129 19.6917 42.4299 18.7086 42.4299C17.7254 42.4299 16.9283 43.2129 16.9283 44.1789C16.9283 50.1524 24.3982 52.9815 28.5 48.6319C32.5998 52.9792 40.0718 50.1568 40.0718 44.1789C40.0718 43.2129 39.2748 42.4299 38.2915 42.4299ZM30.2801 39.399C30.2633 40.6328 29.2134 41.9926 28.5 41.9926C27.7867 41.9926 26.7368 40.6329 26.72 39.399C27.1409 39.3493 29.8971 39.3537 30.2801 39.399Z" fill="#5F5F5F"/>
<path d="M20.0438 32.3726C21.7617 32.3726 23.1592 30.9996 23.1592 29.3118C23.1592 27.624 21.7617 26.251 20.0438 26.251C18.3258 26.251 16.9283 27.624 16.9283 29.3118C16.9283 30.9996 18.3258 32.3726 20.0438 32.3726Z" fill="#5F5F5F"/>
<path d="M36.9563 26.251C35.2383 26.251 33.8408 27.624 33.8408 29.3118C33.8408 30.9996 35.2383 32.3726 36.9563 32.3726C38.6742 32.3726 40.0717 30.9996 40.0717 29.3118C40.0717 27.624 38.6742 26.251 36.9563 26.251Z" fill="#5F5F5F"/>
</g>
<defs>
<clipPath id="clip0_64_1713">
<rect width="57" height="56" fill="white"/>
</clipPath>
</defs>
</svg>
