<svg width="14" height="14" viewBox="0 0 14 14" fill="none" xmlns="http://www.w3.org/2000/svg">
<path d="M8.74999 2.17432C8.74999 1.62203 8.30227 1.17432 7.74999 1.17432H6.24999C5.6977 1.17432 5.24999 1.62203 5.24999 2.17432V5.25007H2.16666C1.61437 5.25007 1.16666 5.69778 1.16666 6.25007V7.75007C1.16666 8.30235 1.61437 8.75007 2.16666 8.75007H5.24999V11.8258C5.24999 12.3781 5.6977 12.8258 6.24999 12.8258H7.74999C8.30227 12.8258 8.74999 12.3781 8.74999 11.8258V8.75007H11.8333C12.3856 8.75007 12.8333 8.30235 12.8333 7.75007V6.25007C12.8333 5.69778 12.3856 5.25007 11.8333 5.25007H8.74999V2.17432Z" fill="#94EC6A"/>
</svg>
