<svg xmlns="http://www.w3.org/2000/svg" width="20" height="20" viewBox="0 0 20 20" fill="currentColor">
<path d="M17.0743 17.0738C13.1725 20.9748 6.82697 20.9748 2.92514 17.0738C-0.975007 13.1727 -0.975007 6.82563 2.92514 2.92463C4.87606 0.974533 7.43808 -6.48499e-05 10.0001 -6.48499e-05C12.5622 -6.48499e-05 15.1234 0.974571 17.0743 2.92463C20.9753 6.82559 20.9753 13.1727 17.0743 17.0738ZM14.1262 7.05156C14.4522 6.72559 14.4522 6.19866 14.1262 5.87269C13.9636 5.71011 13.7502 5.62839 13.5368 5.62839C13.3233 5.62839 13.1099 5.71011 12.9473 5.87269L10.0001 8.82075L7.05372 5.87355C6.89032 5.71097 6.67686 5.62925 6.46426 5.62925C6.25084 5.62925 6.03738 5.71097 5.87481 5.87355C5.54883 6.19952 5.54883 6.72727 5.87481 7.05242L8.82119 9.99962L5.87399 12.9468C5.54801 13.2728 5.54801 13.8005 5.87399 14.1257C6.19914 14.4517 6.72689 14.4517 7.05286 14.1257L10.0001 11.1785L12.9473 14.1257C13.2732 14.4517 13.8002 14.4517 14.1261 14.1257C14.4521 13.8005 14.4521 13.2728 14.1261 12.9468L11.1789 9.99962L14.1262 7.05156Z" fill="#C4C4C4"/>
</svg>