<svg width="163" height="163" viewBox="0 0 163 163" fill="none" xmlns="http://www.w3.org/2000/svg">
<g clip-path="url(#clip0_67_5617)">
<path d="M93.1997 5.38186C85.8736 9.18022 77.1254 9.17926 69.7999 5.38186C38.1462 -11.028 0.171232 12.0913 0.171232 47.7604C0.171232 70.208 18.781 163 47.8773 163C58.0836 163 67.3721 152.588 76.2744 131.169C78.1989 126.539 84.801 126.538 86.7255 131.169C95.6279 152.588 104.916 163 115.123 163C143.934 163 162.829 70.9221 162.829 47.7604C162.828 12.1031 124.866 -11.035 93.1997 5.38186ZM115.122 154.506C109.086 154.506 101.595 144.812 94.5699 127.909C89.7426 116.296 73.2589 116.29 68.4297 127.91C61.4054 144.812 53.914 154.506 47.8776 154.506C29.2707 154.506 8.66637 74.1201 8.66637 47.7611C8.66637 18.4114 39.9154 -0.540925 65.8904 12.9238C75.6647 17.9908 87.3352 17.9908 97.1095 12.9238C123.058 -0.527872 154.333 18.3837 154.333 47.7611C154.333 74.0067 133.743 154.506 115.122 154.506Z" fill="#D9E5FB"/>
<path d="M138.759 43.5132C136.413 43.5132 134.511 45.4144 134.511 47.7608C134.511 54.8523 131.596 75.0252 125.115 97.6683C124.469 99.9229 125.774 102.275 128.029 102.92C130.274 103.566 132.634 102.268 133.281 100.006C139.988 76.5724 143.006 55.3483 143.006 47.7611C143.007 45.4148 141.105 43.5132 138.759 43.5132Z" fill="#D9E5FB"/>
<path d="M47.8775 19.8765C32.5023 19.8765 19.993 32.3852 19.993 47.7604C19.993 50.1067 21.8948 52.008 24.2405 52.008C26.5862 52.008 28.4881 50.1067 28.4881 47.7604C28.4881 37.0692 37.1857 28.3716 47.8775 28.3716C50.2232 28.3716 52.1251 26.4704 52.1251 24.124C52.1251 21.7777 50.2232 19.8765 47.8775 19.8765Z" fill="#D9E5FB"/>
</g>
<defs>
<clipPath id="clip0_67_5617">
<rect width="163" height="163" fill="white"/>
</clipPath>
</defs>
</svg>
