<svg width="58" height="58" viewBox="0 0 58 58" fill="none" xmlns="http://www.w3.org/2000/svg">
<g clip-path="url(#clip0_64_1691)">
<path d="M54.6592 16.2896C52.8443 13.2341 50.2948 10.3277 48.5733 8.80292C44.8153 5.47346 41.6806 5.55454 40.1461 5.89937C39.5014 6.04427 38.9095 6.28318 38.3883 6.60184C35.7109 4.61494 32.4537 3.6416 28.5131 3.6416C24.5725 3.6416 21.3152 4.61494 18.6379 6.60195C18.1166 6.28329 17.5248 6.04427 16.8801 5.89948C15.3461 5.55476 12.2108 5.47357 8.45314 8.80292C6.73155 10.3278 4.18208 13.2343 2.36704 16.2897C-0.0902097 20.4265 -0.637527 23.7728 0.740234 26.2362C2.42251 29.2438 4.9742 30.0134 7.03416 30.2032C6.52783 32.1696 6.21519 34.2732 6.21519 36.8943C6.21519 40.3686 7.00599 43.3576 8.56585 45.7783C9.93704 47.9065 11.9111 49.6107 14.4332 50.8436C19.0931 53.1214 24.7007 53.3848 28.5132 53.3848C32.3257 53.3848 37.9334 53.1214 42.5932 50.8436C45.1152 49.6107 47.0894 47.9065 48.4606 45.7783C50.0203 43.3574 50.8112 40.3685 50.8112 36.8943C50.8112 34.2733 50.4986 32.1697 49.9923 30.2032C52.0522 30.0133 54.604 29.2436 56.2862 26.2361C57.6637 23.773 57.1163 20.4265 54.6592 16.2896ZM8.11711 26.7653C6.29405 26.7174 4.81159 26.3644 3.78679 24.5323C3.09156 23.2892 3.66795 20.9347 5.36838 18.0721C6.98215 15.3552 9.2985 12.7171 10.7678 11.4154C13.1943 9.26536 15.0134 9.14697 15.8692 9.26158C13.3223 12.3664 11.7612 16.4014 10.4557 20.3245C9.9151 21.9491 9.39407 23.3361 8.88997 24.6777C8.62043 25.3954 8.36114 26.0857 8.11711 26.7653ZM26.2359 38.2095C25.333 37.307 24.8604 36.3596 24.8604 35.8902C24.8604 35.4711 24.9323 35.441 25.1992 35.3287C25.9603 35.0084 27.455 34.9715 28.5131 34.9715C29.5712 34.9715 31.0659 35.0084 31.827 35.3287C32.0939 35.4409 32.1658 35.4712 32.1658 35.8902C32.1658 36.3596 31.6933 37.3069 30.7902 38.2095C29.9022 39.097 28.9543 39.5758 28.513 39.5758C28.0717 39.5758 27.124 39.097 26.2359 38.2095ZM41.0603 47.7077C38.3815 49.017 34.8354 49.7271 30.2584 49.8678V42.7179C31.6288 42.1891 32.7448 41.1911 33.2579 40.6784C33.979 39.9577 35.6564 38.0482 35.6564 35.8904C35.6564 34.1251 34.7772 32.783 33.1807 32.1114C32.1166 31.6636 30.7642 31.481 28.5132 31.481C26.2622 31.481 24.9099 31.6636 23.8456 32.1114C22.2492 32.783 21.3699 34.125 21.3699 35.8904C21.3699 38.0482 23.0474 39.9576 23.7685 40.6784C24.2815 41.1912 25.3976 42.1892 26.7679 42.7179V49.8678C22.1909 49.7272 18.6448 49.0172 15.966 47.7077C11.7534 45.6485 9.7056 42.1114 9.7056 36.8943C9.7056 32.4311 10.7341 29.6938 12.1574 25.9052C12.6489 24.5971 13.2058 23.1144 13.7675 21.4266C16.8527 12.1559 20.1163 7.13212 28.5131 7.13212C36.9099 7.13212 40.1735 12.156 43.2586 21.4266C43.8202 23.1145 44.3773 24.5971 44.8687 25.9052C46.292 29.6938 47.3205 32.431 47.3205 36.8943C47.3206 42.1114 45.2728 45.6485 41.0603 47.7077ZM53.2396 24.5323C52.2147 26.3646 50.7323 26.7173 48.9092 26.7653C48.6651 26.0856 48.406 25.3954 48.1365 24.6777C47.6325 23.3362 47.1114 21.9491 46.5707 20.3245C45.2652 16.4014 43.7041 12.3664 41.1572 9.26158C42.013 9.14719 43.8322 9.26536 46.2588 11.4155C47.7281 12.717 50.0444 15.355 51.6581 18.0719C53.3585 20.9347 53.9349 23.2893 53.2396 24.5323Z" fill="#5F5F5F"/>
<path d="M22.7048 22.1929C21.4421 22.1929 20.4144 23.231 20.4144 24.5129C20.4144 25.7947 21.442 26.8337 22.7048 26.8337C23.9691 26.8337 24.9966 25.7945 24.9966 24.5129C24.9966 23.231 23.9691 22.1929 22.7048 22.1929Z" fill="#5F5F5F"/>
<path d="M34.3043 22.1748C33.0293 22.1748 31.9951 23.2217 31.9951 24.513C31.9951 25.8043 33.0293 26.8512 34.3043 26.8512C35.5778 26.8512 36.6119 25.8043 36.6119 24.513C36.6121 23.2217 35.5778 22.1748 34.3043 22.1748Z" fill="#5F5F5F"/>
</g>
<defs>
<clipPath id="clip0_64_1691">
<rect width="57.0263" height="57.0263" fill="white"/>
</clipPath>
</defs>
</svg>
