<svg width="14" height="14" viewBox="0 0 14 14" fill="none" xmlns="http://www.w3.org/2000/svg">
<g clip-path="url(#clip0_1252_7711)">
<path d="M6.76953 8.59839C6.4793 8.59839 6.23441 8.96573 6.23441 9.19647C6.23441 9.41692 6.47947 9.60316 6.76953 9.60316C7.05961 9.60316 7.30465 9.41692 7.30465 9.19647C7.30465 8.96573 7.05976 8.59839 6.76953 8.59839Z" fill="#C85858"/>
<path d="M12.1975 9.98884C12.1886 9.95906 11.1599 7.11838 10.8245 6.10316C10.6756 5.65254 10.3037 5.34448 9.87316 5.34448H3.66574C3.23524 5.34448 2.86327 5.65254 2.71442 6.10316C2.33489 7.25199 1.36103 9.92296 1.34142 9.98884C1.12459 10.7158 1.60989 11.4688 2.29583 11.4688H11.2431C11.9287 11.4688 12.4144 10.7162 12.1975 9.98884ZM7.28317 6.73198C7.46051 6.73198 7.60429 6.89267 7.60429 7.09087C7.60429 7.28907 7.46051 7.44976 7.28317 7.44976C7.10583 7.44976 6.96205 7.28907 6.96205 7.09087C6.96205 6.89267 7.10583 6.73198 7.28317 6.73198ZM6.25676 6.73198C6.43412 6.73198 6.57788 6.89267 6.57788 7.09087C6.57788 7.28907 6.43412 7.44976 6.25676 7.44976C6.07942 7.44976 5.93564 7.28907 5.93564 7.09087C5.93564 6.89267 6.07942 6.73198 6.25676 6.73198ZM5.07842 7.85646C5.07842 7.65825 5.2222 7.49756 5.39954 7.49756C5.57688 7.49756 5.72065 7.65825 5.72065 7.85646C5.72065 8.05466 5.57688 8.21535 5.39954 8.21535C5.2222 8.21535 5.07842 8.05466 5.07842 7.85646ZM6.76945 10.3205C6.12031 10.3205 5.59218 9.81614 5.59218 9.19615C5.59218 8.58767 6.10643 7.88038 6.76945 7.88038C7.43247 7.88038 7.94672 8.58767 7.94672 9.19615C7.94672 9.81614 7.4186 10.3205 6.76945 10.3205ZM8.13937 8.21535C7.96203 8.21535 7.81825 8.05466 7.81825 7.85646C7.81825 7.65825 7.96203 7.49756 8.13937 7.49756C8.31671 7.49756 8.46048 7.65825 8.46048 7.85646C8.46048 8.05466 8.31673 8.21535 8.13937 8.21535Z" fill="#C85858"/>
<path d="M9.92932 4.62834C10.0264 3.75404 9.41532 2.98977 8.63415 2.98977C8.47526 2.98977 8.32303 3.02159 8.18218 3.0797C7.9826 2.4216 7.42571 1.94775 6.76946 1.94775C6.11321 1.94775 5.55632 2.4216 5.35674 3.0797C5.21589 3.02159 5.06366 2.98977 4.90477 2.98977C4.12285 2.98977 3.51266 3.75495 3.6096 4.62834C3.65644 4.62657 9.87069 4.62614 9.92932 4.62834Z" fill="#C85858"/>
</g>
<defs>
<clipPath id="clip0_1252_7711">
<rect width="10.9605" height="12.25" fill="white" transform="translate(1.28943 0.583252)"/>
</clipPath>
</defs>
</svg>
