<svg width="24" height="24" viewBox="0 0 24 24" fill="none" xmlns="http://www.w3.org/2000/svg">
<path d="M8.53836 10.6153C10.0231 10.6153 11.2308 8.99812 11.2308 7.00975C11.2308 5.02151 10.0231 3.40381 8.53836 3.40381C7.054 3.40381 5.84619 5.02147 5.84619 7.00975C5.84619 8.99812 7.054 10.6153 8.53836 10.6153Z" fill="#A9A9A9"/>
<path d="M17.3923 14.4373C17.3329 14.353 17.2759 14.2735 17.2455 14.2051C16.5977 12.7608 14.8221 11.0581 11.9455 11.0158L11.8348 11.0151C9.00243 11.0151 7.24007 12.6277 6.53497 14.1375C6.51062 14.1891 6.45704 14.2561 6.40029 14.327C6.33314 14.41 6.2667 14.495 6.20989 14.5873C5.61424 15.5526 5.31054 16.6393 5.35535 17.6472C5.40231 18.7172 5.83237 19.5767 6.56424 20.0669C6.85994 20.2648 7.17902 20.3645 7.51378 20.3645C8.20407 20.3645 8.83607 19.9595 9.56845 19.4904C10.0341 19.1915 10.5151 18.883 11.0493 18.6522C11.1092 18.6316 11.3545 18.6002 11.7558 18.6002C12.2329 18.6002 12.5756 18.6444 12.6488 18.6707C13.1703 18.9106 13.6283 19.2252 14.0713 19.5288C14.7504 19.9951 15.3916 20.435 16.0874 20.435C16.3859 20.435 16.6753 20.353 16.9484 20.1914C18.4547 19.2999 18.7416 16.8542 17.5884 14.7397C17.5305 14.6336 17.4615 14.5345 17.3923 14.4373Z" fill="#A9A9A9"/>
<path d="M14.6926 10.6153C16.1767 10.6153 17.3846 8.99812 17.3846 7.00975C17.3846 5.02151 16.1767 3.40381 14.6926 3.40381C13.2077 3.40381 12 5.02147 12 7.00975C12 8.99812 13.2077 10.6153 14.6926 10.6153Z" fill="#A9A9A9"/>
<path d="M19.7171 8.41846C18.4367 8.41846 17.4347 9.80161 17.4347 11.5674C17.4347 13.3324 18.4373 14.7157 19.7171 14.7157C20.9967 14.7157 22 13.3324 22 11.5674C22 9.80167 20.9973 8.41846 19.7171 8.41846Z" fill="#A9A9A9"/>
<path d="M6.56509 11.5674C6.56509 9.80167 5.56244 8.41846 4.28265 8.41846C3.0028 8.41846 2 9.80167 2 11.5674C2 13.3324 3.0028 14.7157 4.28265 14.7157C5.56249 14.7157 6.56509 13.3324 6.56509 11.5674Z" fill="#A9A9A9"/>
</svg>
