<svg width="14" height="14" viewBox="0 0 14 14" fill="none" xmlns="http://www.w3.org/2000/svg">
<g clip-path="url(#clip0_1252_7671)">
<path d="M10.9048 2.53239C9.77766 1.40522 7.94362 1.40522 6.81646 2.53239L2.53302 6.81584C1.40586 7.94299 1.40586 9.77701 2.53302 10.9042C3.39413 11.7653 4.56038 12.2495 5.78095 12.2495C5.90613 12.2495 6.01897 12.1741 6.06688 12.0585C6.11478 11.9428 6.08829 11.8097 5.99979 11.7212L4.08831 9.80971C3.81515 9.53653 3.80999 9.10685 4.05284 8.82682L6.47912 11.2531C6.59997 11.3739 6.79594 11.374 6.91681 11.2531C7.03768 11.1322 7.03768 10.9363 6.91681 10.8154L4.48908 8.38767L4.91798 7.95878L7.34572 10.3865C7.46655 10.5074 7.66254 10.5074 7.78341 10.3865C7.90428 10.2656 7.90428 10.0697 7.78341 9.94884L5.3556 7.52113L5.78449 7.09224L8.21222 9.51998C8.33305 9.64083 8.52903 9.64085 8.6499 9.51998C8.77077 9.39911 8.77077 9.20317 8.6499 9.0823L6.22216 6.65455L6.65105 6.22566L9.07878 8.6534C9.19963 8.77425 9.39559 8.77429 9.51646 8.6534C9.63733 8.53253 9.63733 8.33659 9.51646 8.21572L7.08874 5.78797L7.51763 5.35908L9.94538 7.78683C10.0662 7.90767 10.2622 7.9077 10.3831 7.78683C10.5039 7.66595 10.5039 7.47001 10.3831 7.34914L7.9553 4.92144L8.38419 4.49254L10.8119 6.92029C10.9328 7.04114 11.1287 7.04116 11.2496 6.92029C11.3705 6.79942 11.3705 6.60347 11.2496 6.4826L8.82303 4.05603C9.10411 3.80831 9.53664 3.814 9.81034 4.08768L11.7218 5.99916C11.8103 6.08769 11.9434 6.11415 12.0591 6.06625C12.1747 6.01835 12.2501 5.9055 12.2501 5.78032C12.2501 4.56252 11.7679 3.39547 10.9048 2.53239Z" fill="#9761B0"/>
</g>
<defs>
<clipPath id="clip0_1252_7671">
<rect width="10.5625" height="10.5625" fill="white" transform="translate(1.68741 1.6875)"/>
</clipPath>
</defs>
</svg>
