<svg width="159" height="159" viewBox="0 0 159 159" fill="none" xmlns="http://www.w3.org/2000/svg">
<path d="M157.94 29.7421L129.216 1.05877C127.802 -0.352922 125.512 -0.352922 124.099 1.05877C122.685 2.47045 122.685 4.7572 124.099 6.16855L128.438 10.5022L104.605 34.3013L89.4094 19.1268C87.9957 17.7151 85.7059 17.7151 84.2922 19.1268C82.8785 20.5385 82.8785 22.8252 84.2922 24.2366L92.5899 32.5228L22.7729 102.24C22.0943 102.918 21.7129 103.835 21.7129 104.796C21.7129 112.459 24.4915 119.419 28.9485 124.983L1.06029 152.832C-0.35343 154.243 -0.35343 156.53 1.06029 157.941C1.76698 158.647 2.69286 159 3.61874 159C4.54462 159 5.4705 158.647 6.17719 157.941L34.0654 130.093C39.6376 134.544 46.6066 137.318 54.2812 137.318C55.2424 137.318 56.1615 136.937 56.8397 136.26L126.656 66.5418L134.954 74.8276C135.661 75.5333 136.587 75.8863 137.512 75.8863C138.438 75.8863 139.364 75.5333 140.071 74.8276C141.485 73.4159 141.485 71.1292 140.071 69.7178L124.31 53.9789L148.143 30.1798L152.822 34.8522C153.528 35.5579 154.454 35.9109 155.38 35.9109C156.306 35.9109 157.232 35.5579 157.938 34.8522C159.353 33.4402 159.353 31.1534 157.94 29.7421ZM52.7506 130.048C39.9584 129.321 29.6785 119.042 28.9515 106.249L32.5229 102.678L40.8087 110.964C41.5144 111.669 42.4393 112.022 43.3638 112.022C44.2883 112.022 45.2128 111.669 45.9189 110.964C47.3305 109.552 47.3305 107.265 45.9189 105.854L37.6327 97.5681L46.9772 88.2236L51.6496 92.896C52.3553 93.6017 53.2802 93.9547 54.2047 93.9547C55.1292 93.9547 56.0537 93.6017 56.7597 92.896C58.1714 91.4843 58.1714 89.1976 56.7597 87.7862L52.0873 83.1138L61.4318 73.7693L69.7177 82.0551C70.4233 82.7608 71.3482 83.1138 72.2727 83.1138C73.1972 83.1138 74.1218 82.7608 74.8278 82.0551C76.2395 80.6434 76.2395 78.3567 74.8278 76.9453L66.542 68.6595L75.8865 59.3143L80.5589 63.9867C81.2646 64.6924 82.1894 65.0454 83.1139 65.0454C84.0385 65.0454 84.963 64.6924 85.669 63.9867C87.0807 62.575 87.0807 60.2883 85.669 58.8769L80.9962 54.2045L97.5682 37.6325L121.367 61.4317L52.7506 130.048ZM119.024 48.8688L109.566 39.4111L133.366 15.612L142.823 25.0696L119.024 48.8688Z" fill="#D9E5FB"/>
</svg>
