<svg width="14" height="14" viewBox="0 0 14 14" fill="none" xmlns="http://www.w3.org/2000/svg">
<g clip-path="url(#clip0_1252_7670)">
<path d="M9.14777 1.75C8.31906 1.75 7.53977 2.07276 6.95436 2.65865L2.6589 6.9541C2.07302 7.54019 1.75003 8.31925 1.75003 9.14774C1.75003 10.8583 3.14176 12.25 4.85231 12.25C5.68149 12.25 6.46031 11.9273 7.04573 11.3414L11.3412 7.04614C11.9275 6.46004 12.2501 5.68097 12.2501 4.85226C12.25 3.14173 10.8583 1.75 9.14777 1.75ZM5.10306 6.53485L3.67124 7.96644C3.3557 8.28198 3.18185 8.70168 3.18185 9.14774C3.18185 9.27965 3.07511 9.38638 2.94321 9.38638C2.8113 9.38638 2.70456 9.27965 2.70456 9.14774C2.70456 8.57398 2.92781 8.03472 3.33378 7.629L4.7656 6.19741C4.85882 6.10418 5.00984 6.10418 5.10304 6.19741C5.19629 6.29061 5.19629 6.44162 5.10306 6.53485ZM10.6663 6.37124L8.68731 8.34999L5.65022 5.31257L7.62926 3.33352C8.03475 2.92781 8.57401 2.70453 9.14777 2.70453C10.3321 2.70453 11.2955 3.66794 11.2955 4.85226C11.2955 5.42602 11.0722 5.96552 10.6663 6.37124Z" fill="#374C95"/>
</g>
<defs>
<clipPath id="clip0_1252_7670">
<rect width="10.5" height="10.5" fill="white" transform="translate(1.75003 1.75)"/>
</clipPath>
</defs>
</svg>
