<svg width="37" height="37" viewBox="0 0 37 37" fill="none" xmlns="http://www.w3.org/2000/svg">
<g clip-path="url(#clip0_106_1911)">
<path d="M12.3235 17.4671C14.7851 17.2284 16.5376 14.4604 16.2308 11.2958C15.924 8.13146 13.6721 5.75095 11.2107 5.98961C8.74981 6.22821 6.99706 8.99693 7.30389 12.1614C7.61072 15.3259 9.86266 17.7057 12.3235 17.4671Z" fill="currentColor"/>
<path d="M27.5917 22.1267C27.4802 22.0021 27.3735 21.8847 27.3125 21.7808C26.0157 19.5862 22.8093 17.1617 18.0338 17.5567L17.8502 17.5735C13.1545 18.0288 10.4816 20.8785 9.5456 23.3947C9.5132 23.4808 9.43472 23.5961 9.35157 23.718C9.25305 23.861 9.15601 24.0069 9.07609 24.163C8.23754 25.7949 7.90176 27.5734 8.13156 29.1702C8.37453 30.8656 9.22014 32.1643 10.5091 32.827C11.0299 33.0944 11.5743 33.2017 12.1292 33.1479C13.2736 33.037 14.2589 32.2908 15.4007 31.4265C16.1265 30.8759 16.8763 30.3077 17.7264 29.8544C17.8225 29.812 18.2244 29.7226 18.8896 29.6581C19.6806 29.5814 20.2555 29.5967 20.381 29.6269C21.2826 29.9247 22.0904 30.3518 22.8717 30.7638C24.0695 31.3967 25.2005 31.9939 26.3539 31.8821C26.8489 31.8341 27.316 31.6569 27.7437 31.3558C30.1033 29.695 30.2016 25.7563 27.9635 22.5764C27.8511 22.4168 27.7215 22.2703 27.5917 22.1267Z" fill="currentColor"/>
<path d="M22.5262 16.4777C24.9866 16.2392 26.7397 13.4711 26.4328 10.3065C26.126 7.1422 23.8738 4.76173 21.4134 5.00029C18.9516 5.23898 17.1991 8.00767 17.5059 11.1721C17.8127 14.3367 20.0644 16.7164 22.5262 16.4777Z" fill="currentColor"/>
<path d="M30.5171 12.1734C28.3945 12.3792 26.9467 14.7416 27.2192 17.5519C27.4916 20.361 29.3673 22.4014 31.4889 22.1957C33.6104 21.99 35.0602 19.6271 34.7878 16.8181C34.5153 14.0079 32.6396 11.9676 30.5171 12.1734Z" fill="currentColor"/>
<path d="M9.19895 19.2993C8.92648 16.4891 7.05078 14.4488 4.92907 14.6546C2.80728 14.8603 1.35822 17.2229 1.6307 20.0331C1.90306 22.8422 3.77903 24.8826 5.90083 24.6769C8.02262 24.4711 9.47131 22.1084 9.19895 19.2993Z" fill="currentColor"/>
</g>
<defs>
<clipPath id="clip0_106_1911">
<rect width="33.3126" height="33.3126" fill="white" transform="translate(0 3.21484) rotate(-5.53804)"/>
</clipPath>
</defs>
</svg>
