<svg width="14" height="14" viewBox="0 0 14 14" fill="none" xmlns="http://www.w3.org/2000/svg">
<g clip-path="url(#clip0_1252_7668)">
<path d="M2.77546 7.9988C2.68178 7.80627 2.62459 7.59283 2.62459 7.36434C2.62459 6.55889 3.27752 5.90601 4.08293 5.90601H4.53278C4.29058 5.56003 4.08293 5.14872 4.08293 4.68724C4.08293 3.54725 5.30311 2.62476 6.27043 2.62476C6.27043 3.47974 6.60025 4.08309 7.72876 4.08309C8.73519 4.08309 9.68096 4.91711 9.87496 5.90601H9.91626C10.7217 5.90601 11.3746 6.55889 11.3746 7.36434C11.3746 7.59283 11.3174 7.80627 11.2237 7.9988C11.7493 8.31861 12.1038 8.89157 12.1038 9.55184C12.1038 10.5586 11.2876 11.3748 10.2808 11.3748H3.71834C2.71155 11.3748 1.89543 10.5586 1.89543 9.55184C1.89543 8.89156 2.24986 8.31861 2.77547 7.9988H2.77546Z" fill="#C2862A"/>
</g>
<defs>
<clipPath id="clip0_1252_7668">
<rect width="11.6667" height="11.6667" fill="white" transform="matrix(-1 0 0 1 12.8333 1.16675)"/>
</clipPath>
</defs>
</svg>
