<svg width="14" height="14" viewBox="0 0 14 14" fill="none" xmlns="http://www.w3.org/2000/svg">
<path fill-rule="evenodd" clip-rule="evenodd" d="M9.40026 5.99779C9.61961 6.11603 9.87222 6.18339 10.1411 6.18339C10.9836 6.18339 11.6667 5.52176 11.6667 4.70561C11.6667 3.88945 10.9836 3.22783 10.1411 3.22783C9.85706 3.22783 9.59119 3.30299 9.36348 3.43391C9.37319 3.36654 9.37821 3.29773 9.37821 3.22778C9.37821 2.41162 8.69515 1.75 7.85256 1.75C7.00998 1.75 6.32692 2.41162 6.32692 3.22778C6.32692 3.67886 6.53557 4.08274 6.86449 4.3538L3.99102 8.57223C3.77766 8.46231 3.53416 8.40003 3.27564 8.40003C2.43305 8.40003 1.75 9.06166 1.75 9.87781C1.75 10.694 2.43305 11.3556 3.27564 11.3556C3.55962 11.3556 3.82548 11.2804 4.05317 11.1495C4.04348 11.2168 4.03847 11.2856 4.03847 11.3555C4.03847 12.1717 4.72153 12.8333 5.56411 12.8333C6.4067 12.8333 7.08975 12.1717 7.08975 11.3555C7.08975 10.8944 6.87168 10.4825 6.52998 10.2115L9.40026 5.99779Z" fill="#DA8080"/>
</svg>
