<svg width="18" height="19" viewBox="0 0 18 19" fill="none" xmlns="http://www.w3.org/2000/svg">
<path d="M9 19C7.95 19 6.99583 18.7042 6.1375 18.1125C5.27917 17.5208 4.58333 16.7583 4.05 15.825L1.55 17.25L0.8 15.975L3.425 14.45C3.34167 14.1667 3.26667 13.8833 3.2 13.6C3.13333 13.3167 3.08333 13.0333 3.05 12.75H0V11.25H3.05C3.08333 10.9667 3.13333 10.6833 3.2 10.4C3.26667 10.1167 3.34167 9.83333 3.425 9.55L0.8 8L1.55 6.725L4.025 8.175C4.175 7.90833 4.34167 7.6625 4.525 7.4375C4.70833 7.2125 4.9 6.99167 5.1 6.775C5.06667 6.64167 5.04167 6.5125 5.025 6.3875C5.00833 6.2625 5 6.13333 5 6C5 5.53333 5.0875 5.07917 5.2625 4.6375C5.4375 4.19583 5.68333 3.8 6 3.45L4.35 1.825L5.4 0.75L7.175 2.5C7.45833 2.33333 7.75 2.20833 8.05 2.125C8.35 2.04167 8.66667 2 9 2C9.33333 2 9.65 2.04167 9.95 2.125C10.25 2.20833 10.5417 2.33333 10.825 2.5L12.6 0.75L13.65 1.825L12 3.475C12.3 3.825 12.5375 4.21667 12.7125 4.65C12.8875 5.08333 12.975 5.53333 12.975 6C12.975 6.13333 12.9708 6.25833 12.9625 6.375C12.9542 6.49167 12.9333 6.61667 12.9 6.75C13.1 6.96667 13.2875 7.1875 13.4625 7.4125C13.6375 7.6375 13.8 7.88333 13.95 8.15L16.45 6.75L17.2 8.025L14.575 9.525C14.675 9.80833 14.7542 10.0917 14.8125 10.375C14.8708 10.6583 14.9167 10.95 14.95 11.25H18V12.75H14.95C14.9167 13.0333 14.8708 13.3208 14.8125 13.6125C14.7542 13.9042 14.675 14.1917 14.575 14.475L17.2 16L16.45 17.275L13.95 15.825C13.4167 16.7583 12.7208 17.5208 11.8625 18.1125C11.0042 18.7042 10.05 19 9 19ZM6.525 5.65C6.90833 5.43333 7.30833 5.27083 7.725 5.1625C8.14167 5.05417 8.56667 5 9 5C9.43333 5 9.85417 5.05417 10.2625 5.1625C10.6708 5.27083 11.0667 5.425 11.45 5.625C11.35 5.075 11.0583 4.58333 10.575 4.15C10.0917 3.71667 9.56667 3.5 9 3.5C8.43333 3.5 7.90417 3.71667 7.4125 4.15C6.92083 4.58333 6.625 5.08333 6.525 5.65ZM9 17.5C10.2833 17.5 11.3542 16.925 12.2125 15.775C13.0708 14.625 13.5 13.3667 13.5 12C13.5 10.75 13.0958 9.52083 12.2875 8.3125C11.4792 7.10417 10.3833 6.5 9 6.5C7.61667 6.5 6.52083 7.10417 5.7125 8.3125C4.90417 9.52083 4.5 10.75 4.5 12C4.5 13.3667 4.92917 14.625 5.7875 15.775C6.64583 16.925 7.71667 17.5 9 17.5ZM8.25 15V9H9.75V15H8.25Z" fill="white"/>
</svg>
