<svg width="19" height="21" viewBox="0 0 19 21" fill="none" xmlns="http://www.w3.org/2000/svg">
<path d="M5.75 20.5L4.25 19.375V14.75H2.75C2.35 14.75 2 14.6 1.7 14.3C1.4 14 1.25 13.65 1.25 13.25V5.25H1C0.783333 5.25 0.604167 5.17917 0.4625 5.0375C0.320833 4.89583 0.25 4.71667 0.25 4.5C0.25 4.28333 0.320833 4.10417 0.4625 3.9625C0.604167 3.82083 0.783333 3.75 1 3.75H4.25V1.5H3.5C3.28333 1.5 3.10417 1.42917 2.9625 1.2875C2.82083 1.14583 2.75 0.966667 2.75 0.75C2.75 0.533333 2.82083 0.354167 2.9625 0.2125C3.10417 0.0708334 3.28333 0 3.5 0H6.5C6.71667 0 6.89583 0.0708334 7.0375 0.2125C7.17917 0.354167 7.25 0.533333 7.25 0.75C7.25 0.966667 7.17917 1.14583 7.0375 1.2875C6.89583 1.42917 6.71667 1.5 6.5 1.5H5.75V3.75H9C9.21667 3.75 9.39583 3.82083 9.5375 3.9625C9.67917 4.10417 9.75 4.28333 9.75 4.5C9.75 4.71667 9.67917 4.89583 9.5375 5.0375C9.39583 5.17917 9.21667 5.25 9 5.25H8.75V13.25C8.75 13.65 8.6 14 8.3 14.3C8 14.6 7.65 14.75 7.25 14.75H5.75V20.5ZM2.75 13.25H7.25V11.25H5.25C5.11667 11.25 5 11.2 4.9 11.1C4.8 11 4.75 10.8833 4.75 10.75C4.75 10.6167 4.8 10.5 4.9 10.4C5 10.3 5.11667 10.25 5.25 10.25H7.25V8.25H5.25C5.11667 8.25 5 8.2 4.9 8.1C4.8 8 4.75 7.88333 4.75 7.75C4.75 7.61667 4.8 7.5 4.9 7.4C5 7.3 5.11667 7.25 5.25 7.25H7.25V5.25H2.75V13.25ZM13 20C12.6 20 12.25 19.85 11.95 19.55C11.65 19.25 11.5 18.9 11.5 18.5V11.85C11.5 11.3167 11.5667 10.9125 11.7 10.6375C11.8333 10.3625 12.0083 10.1083 12.225 9.875C12.5417 9.54167 12.75 9.28333 12.85 9.1C12.95 8.91667 13 8.71667 13 8.5V7.75H12.75C12.5333 7.75 12.3542 7.67917 12.2125 7.5375C12.0708 7.39583 12 7.21667 12 7C12 6.78333 12.075 6.60417 12.225 6.4625C12.375 6.32083 12.55 6.25 12.75 6.25H17.75C17.9667 6.25 18.1458 6.32083 18.2875 6.4625C18.4292 6.60417 18.5 6.78333 18.5 7C18.5 7.21667 18.4292 7.39583 18.2875 7.5375C18.1458 7.67917 17.9667 7.75 17.75 7.75H17.5V8.5C17.5 8.7 17.5625 8.90833 17.6875 9.125C17.8125 9.34167 18.0333 9.61667 18.35 9.95C18.5667 10.1833 18.7292 10.425 18.8375 10.675C18.9458 10.925 19 11.3167 19 11.85V18.5C19 18.9 18.85 19.25 18.55 19.55C18.25 19.85 17.9 20 17.5 20H13ZM13 12.5H17.5V11.85C17.5 11.55 17.4167 11.2833 17.25 11.05C17.0833 10.8167 16.9 10.575 16.7 10.325C16.45 10.0083 16.2708 9.71667 16.1625 9.45C16.0542 9.18333 16 8.86667 16 8.5V7.75H14.5V8.5C14.5 8.85 14.45 9.15833 14.35 9.425C14.25 9.69167 14.075 9.98333 13.825 10.3C13.625 10.55 13.4375 10.7958 13.2625 11.0375C13.0875 11.2792 13 11.55 13 11.85V12.5ZM13 15.5H17.5V13.5H13V15.5ZM13 18.5H17.5V16.5H13V18.5ZM13 15.5H17.5H13Z" fill="#07CDA9"/>
</svg>
