<svg width="14" height="14" viewBox="0 0 14 14" fill="none" xmlns="http://www.w3.org/2000/svg">
<g clip-path="url(#clip0_1252_7667)">
<path d="M7.44021 2.1118C7.15248 1.62097 6.84783 1.6379 6.5601 2.1118C5.23994 4.07512 3.24277 7.02011 3.24277 8.4926C3.24277 9.52503 3.6659 10.4728 4.3429 11.1498C5.01991 11.8269 5.96772 12.25 7.00016 12.25C8.03259 12.25 8.9804 11.8269 9.65741 11.1498C10.3344 10.4728 10.7575 9.52503 10.7575 8.4926C10.7575 7.00318 8.76037 4.07512 7.44021 2.1118ZM9.70818 10.1682C9.43738 10.6082 9.0481 10.9975 8.5742 11.2683C8.35417 11.3868 8.08337 11.3191 7.96489 11.0991C7.82949 10.8621 7.91411 10.5913 8.13414 10.4728C8.47265 10.2867 8.74345 10.0159 8.94655 9.69428C9.14965 9.37271 9.26813 9.00035 9.28505 8.61107C9.30198 8.35719 9.50508 8.17102 9.75896 8.18794C10.0128 8.20487 10.199 8.40797 10.1821 8.66185C10.1482 9.20345 9.97898 9.71121 9.70818 10.1682Z" fill="#93D1FF"/>
</g>
<defs>
<clipPath id="clip0_1252_7667">
<rect width="10.5" height="10.5" fill="white" transform="translate(1.75003 1.75)"/>
</clipPath>
</defs>
</svg>
